# xmcd CD database file
#
# Track frame offsets:
#	183
#	12550
#	25940
#	40098
#	54253
#	65753
#	78700
#	95143
#	106470
#	115128
#	127295
#	139183
#	151450
#	161958
#	172813
#	183695
#	194983
#	207933
#	220653
#	234800
#	246033
#	260020
#	280583
#
# Disc length: 4053 seconds
#
# Revision: 0
# Processed by: cddbd v1.4PL0 Copyright (c) Steve Scherf et al.
# Submitted via: CDex 1.50beta9
#
DISCID=5b0fd317
DTITLE=Lennie Tristano - Intuition
DYEAR=1900
DGENRE=Jazz
TTITLE0=Out of a Limb
TTITLE1=I Can't Get started With You
TTITLE2=I Surrender Dear
TTITLE3=Interlude
TTITLE4=Atonement
TTITLE5=Coolin' Off With Ulanov
TTITLE6=Freedom
TTITLE7=Parallel
TTITLE8=Apellation
TTITLE9=Abstraction
TTITLE10=Palimpsest
TTITLE11=Dissonance
TTITLE12=New Sound
TTITLE13=Through These Portals
TTITLE14=Resemblance
TTITLE15=Speculation
TTITLE16=Crosscurrent
TTITLE17=Yesterday
TTITLE18=Marionette
TTITLE19=Intuition
TTITLE20=Digression
TTITLE21=You Go to My Head
TTITLE22=Sax of Kind
EXTD=
EXTT0=
EXTT1=
EXTT2=
EXTT3=
EXTT4=
EXTT5=
EXTT6=
EXTT7=
EXTT8=
EXTT9=
EXTT10=
EXTT11=
EXTT12=
EXTT13=
EXTT14=
EXTT15=
EXTT16=
EXTT17=
EXTT18=
EXTT19=
EXTT20=
EXTT21=
EXTT22=
PLAYORDER=
